<svg xmlns="http://www.w3.org/2000/svg" viewBox="0 0 18 18">
  <path fill="#4285F4" d="M17.64 9.205c0-.638-.057-1.252-.164-1.841H9v3.481h4.844a4.14 4.14 0 0 1-1.796 2.716v2.259h2.909c1.702-1.567 2.683-3.875 2.683-6.615z"/>
  <path fill="#34A853" d="M9 18c2.43 0 4.467-.806 5.957-2.18l-2.91-2.259c-.806.54-1.837.86-3.047.86-2.344 0-4.328-1.585-5.036-3.713H.957v2.332A9 9 0 0 0 9 18z"/>
  <path fill="#FBBC05" d="M3.964 10.708A5.41 5.41 0 0 1 3.682 9c0-.593.102-1.17.282-1.708V4.96H.957A9 9 0 0 0 0 9c0 1.453.348 2.83.957 4.04l3.007-2.332z"/>
  <path fill="#EA4335" d="M9 3.58c1.32 0 2.507.454 3.44 1.345l2.582-2.582C13.463.891 11.426 0 9 0A9 9 0 0 0 .957 4.96l3.007 2.332C4.672 5.165 6.656 3.58 9 3.58z"/>
</svg>
